<?xml version="1.0" encoding="UTF-8" standalone="no"?>
<svg
   svg:contrastcolor="44D62C"
   svg:template="Contrast"
   svg:presentation="2.5"
   svg:layouttype="undefined"
   svg:specialfontid="undefined"
   svg:id1="553"
   svg:id2="335"
   svg:companyname="ML"
   svg:companytagline=""
   version="1.1"
   viewBox="0 45 285.51901 285.51901"
   id="svg44"
   sodipodi:docname="logo.svg"
   inkscape:version="1.2.2 (1:1.2.2+202212051552+b0a8486541)"
   width="285.51901"
   height="285.51901"
   xmlns:inkscape="http://www.inkscape.org/namespaces/inkscape"
   xmlns:sodipodi="http://sodipodi.sourceforge.net/DTD/sodipodi-0.dtd"
   xmlns="http://www.w3.org/2000/svg"
   xmlns:svg="http://www.w3.org/2000/svg">
  <defs
     id="defs48" />
  <sodipodi:namedview
     id="namedview46"
     pagecolor="#ffffff"
     bordercolor="#000000"
     borderopacity="0.25"
     inkscape:showpageshadow="2"
     inkscape:pageopacity="0.0"
     inkscape:pagecheckerboard="0"
     inkscape:deskcolor="#d1d1d1"
     showgrid="false"
     inkscape:zoom="0.71052632"
     inkscape:cx="413.77778"
     inkscape:cy="164.66667"
     inkscape:window-width="1366"
     inkscape:window-height="719"
     inkscape:window-x="0"
     inkscape:window-y="25"
     inkscape:window-maximized="1"
     inkscape:current-layer="g12" />
  <g
     data-paper-data="{&quot;isGlobalGroup&quot;:true,&quot;bounds&quot;:{&quot;x&quot;:168.56173231522885,&quot;y&quot;:121.7637742704642,&quot;width&quot;:212.87653536954238,&quot;height&quot;:226.47245145907164}}"
     id="g12"
     style="font-family:none;mix-blend-mode:normal;fill:#101820;fill-rule:nonzero;stroke:none;stroke-width:1;stroke-linecap:butt;stroke-linejoin:miter;stroke-miterlimit:10;stroke-dasharray:none;stroke-dashoffset:0"
     transform="translate(5e-6,-2.5e-5)">
    <g
       id="g1078"
       inkscape:export-filename="g1078.svg"
       inkscape:export-xdpi="96"
       inkscape:export-ydpi="96"
       transform="translate(-132.24049,-47.240485)">
      <g
         id="g1064">
        <path
           d="m 214.06537,194.6861 c -0.82877,0 -2.21006,0.35519 -4.1044,1.0261 -1.18397,0.47359 -2.09167,1.06557 -2.76259,1.77594 v 0.0395 c 1.34183,-0.43412 2.56525,-0.67091 3.70976,-0.67091 0.0395,0.0395 0.1184,0.0395 0.19732,0.0395 h 0.11841 c 1.46021,0 2.95991,0.39465 4.57799,1.18396 0.82876,0.39465 1.77593,1.10503 2.84151,2.13113 0.82876,0.9077 1.42076,1.65755 1.77593,2.32846 l 8.68239,18.50929 10.37942,22.10064 c 0.35518,0.9077 0.94717,1.38129 1.77593,1.38129 0.55252,0 1.02611,-0.23679 1.42076,-0.74984 l 6.3934,-13.57611 10.93192,-23.2846 c 1.46022,-3.15723 2.32846,-4.89371 2.60472,-5.20944 0.19733,-0.35519 0.78931,-1.0261 1.85488,-2.09167 2.1706,-1.81541 4.45959,-2.72311 6.78805,-2.72311 h 0.15786 c 0.0395,0 0.1184,0 0.19733,-0.0395 1.10503,0 2.32846,0.23679 3.67029,0.67091 0,-0.0395 0,-0.0395 0,-0.0395 l -0.0395,-0.0789 c -0.63145,-0.59198 -1.34182,-1.06557 -2.13113,-1.42076 -2.09168,-0.86824 -3.6703,-1.30236 -4.69639,-1.30236 h -0.15787 c -1.22343,0 -2.48631,0.23679 -3.82815,0.67091 -1.42075,0.51305 -2.76258,1.34182 -4.06493,2.52579 -1.06558,1.06557 -1.77594,2.01274 -2.21006,2.84151 -0.19734,0.47359 -2.44686,5.2489 -6.70913,14.28649 -6.78804,14.40488 -10.18207,21.62706 -10.18207,21.66652 h -0.0395 l -8.09041,-17.24639 c -5.40676,-11.48444 -8.24828,-17.60158 -8.60346,-18.27249 -0.35519,-0.9077 -1.10503,-1.93381 -2.24953,-3.15723 -2.40739,-2.21006 -5.09104,-3.3151 -8.05095,-3.3151 z m 60.34264,8.564 c -1.69701,0 -3.47296,0.55252 -5.32783,1.65755 -0.74984,0.43412 -1.53915,1.10503 -2.44686,1.93381 -0.82877,0.94717 -1.46022,1.73648 -1.81541,2.40739 -0.98664,1.93381 -4.30173,8.91919 -9.94529,20.91668 l -13.61557,28.69137 h -0.0395 l -4.2228,-8.95865 c -7.06431,-14.9574 -13.29985,-28.02046 -18.62768,-39.22864 -0.43412,-0.94717 -0.9077,-1.81541 -1.46022,-2.56525 -0.19732,-0.35519 -0.86823,-1.06557 -1.9338,-2.0522 -2.24953,-1.85488 -4.53853,-2.76258 -6.86699,-2.76258 h -0.19733 c -2.48632,0 -4.65692,1.10503 -6.43287,3.35456 -0.59198,0.82877 -1.10503,1.61808 -1.46022,2.36793 v 0.0395 h 0.0395 c 1.46022,-1.42076 3.23617,-2.13113 5.28837,-2.13113 h 0.43412 c 0.82877,0 1.77594,0.15786 2.80205,0.47359 2.44686,0.82877 4.26227,2.24953 5.44623,4.26227 0.27626,0.47359 2.01274,4.18334 5.28837,11.08979 7.3011,15.35205 10.97139,23.12674 11.05032,23.24514 5.40676,11.48444 8.28774,17.52265 8.564,18.11463 0.43412,1.30236 1.22343,1.93381 2.289,1.93381 0.55251,0 1.06557,-0.19733 1.53915,-0.55252 0.19733,-0.1184 0.63145,-0.98664 1.38129,-2.60472 l 12.47108,-26.32344 c 6.86699,-14.48381 10.33993,-21.86385 10.45833,-22.06118 0.86824,-1.85488 1.46022,-2.99937 1.73648,-3.39403 0.35519,-0.59198 1.0261,-1.26289 1.93381,-2.0522 1.93381,-1.42076 3.94654,-2.13113 5.99875,-2.13113 h 0.39465 c 2.0522,0 3.82815,0.71038 5.28837,2.13113 v -0.0395 c 0,-0.0395 -0.0395,-0.1184 -0.0789,-0.19733 -1.93381,-3.70975 -4.57799,-5.56463 -7.93255,-5.56463 z m -71.07724,10.37941 c -1.10503,0 -2.0522,0.1184 -2.80205,0.39465 -1.53915,0.55252 -2.88098,1.69701 -4.1044,3.39403 -0.67091,0.94717 -1.57862,2.60472 -2.64418,4.93318 -4.57799,9.62957 -10.18208,21.58759 -16.85174,35.91354 -0.98664,1.93381 -1.46022,3.74922 -1.46022,5.52516 v 0.23679 c 0,2.88098 1.10503,5.52516 3.27563,7.93255 2.44686,2.36793 5.16997,3.55189 8.12988,3.55189 h 0.27626 c 1.18396,0 2.40739,-0.23679 3.70975,-0.67091 2.72311,-0.98664 4.73585,-2.64418 6.11714,-4.93318 0.43412,-0.74984 2.09167,-4.26227 4.97264,-10.53727 0.51305,-0.98664 4.57799,-9.62957 12.19482,-25.88932 l 4.89371,10.37941 c 0.35519,0.82877 4.30173,9.19545 11.7607,25.10001 0.43412,0.98664 1.22343,2.09167 2.36793,3.3151 2.32846,2.13113 5.05158,3.1967 8.09041,3.1967 1.30236,0 2.64418,-0.23679 3.94654,-0.67091 2.56525,-0.9077 4.57799,-2.60472 6.03821,-5.01211 0.39465,-0.74984 2.24953,-4.61746 5.52516,-11.68177 7.22217,-15.35205 11.05032,-23.56086 11.56337,-24.58696 0.1184,0.19733 1.85488,3.86761 5.13051,10.93192 0.51305,1.0261 4.18334,8.84026 11.05032,23.44247 0.98664,2.40739 2.48632,4.30173 4.42013,5.60409 2.0522,1.34182 4.18334,2.01274 6.43287,2.01274 h 0.23679 c 2.88098,0 5.52516,-1.10503 7.93255,-3.35456 2.32846,-2.44686 3.47296,-5.16997 3.47296,-8.12988 v -0.23679 c 0,-1.69701 -0.43412,-3.43349 -1.26289,-5.13051 -6.90645,-14.87847 -12.19482,-26.12612 -15.82564,-33.74294 -1.69701,-3.74922 -2.88098,-6.07768 -3.55189,-7.06431 -0.43412,-0.71038 -1.06557,-1.46022 -1.89434,-2.24953 -1.30236,-1.30236 -3.0783,-1.97327 -5.32783,-1.97327 h -0.23679 c -2.72311,0 -5.01211,1.06557 -6.86699,3.15723 -0.98664,1.22343 -1.77594,2.48632 -2.40739,3.74922 l -9.43224,20.12737 -11.05032,23.5214 c -0.98664,2.1706 -1.61808,3.47296 -1.97327,3.98601 -1.53915,2.01274 -3.51242,2.99937 -5.88035,2.99937 h -0.0395 c -0.86824,0 -1.69701,-0.15786 -2.44686,-0.43412 -1.61808,-0.55252 -2.92044,-1.57862 -3.82815,-3.11777 -0.19733,-0.35519 -1.81541,-3.82815 -4.85425,-10.33994 l -11.05032,-23.44247 c -3.82815,-8.24828 -5.95928,-12.70787 -6.35393,-13.45771 -2.13113,-4.49906 -5.20944,-6.74859 -9.19545,-6.74859 z m -23.56087,50.27896 c 0,-0.67091 0.15786,-1.46022 0.43412,-2.36793 0.27626,-0.67091 2.76258,-6.03821 7.5379,-16.14136 l 10.7346,-22.85048 c 0.39466,-1.0261 0.78931,-1.85488 1.22344,-2.48632 1.10503,-1.42076 2.28899,-2.13113 3.55189,-2.13113 h 0.35519 c 0.67091,0 1.46022,0.23679 2.36793,0.67091 -4.93318,10.45834 -7.4195,15.82564 -7.5379,16.06243 l -12.7868,27.23115 c -0.47359,0.86824 -0.71038,1.49969 -0.71038,1.93381 v 0.0789 c 0,0.19733 0.0395,0.39465 0.0789,0.63145 0.43412,0.98664 1.1445,1.49969 2.0522,1.49969 h 0.0395 c 0.59198,0 1.1445,-0.23679 1.57862,-0.74984 0.19733,-0.23679 0.74984,-1.26289 1.57862,-3.11777 l 11.36604,-24.23177 c 4.81478,-10.22155 7.26164,-15.39152 7.34057,-15.50991 l 2.80205,5.99875 -6.90645,14.64167 c -6.98538,14.91793 -10.7346,22.85048 -11.20818,23.83712 -0.19733,0.51305 -0.59198,1.18396 -1.26289,1.97327 -1.57862,1.53915 -3.3151,2.289 -5.20944,2.289 h -0.31572 c -1.81541,0 -3.47296,-0.74984 -5.01211,-2.21006 -1.38129,-1.53915 -2.09167,-3.1967 -2.09167,-5.05158 z m 96.72978,-45.30632 c 0.9077,-0.43412 1.69701,-0.67091 2.36793,-0.67091 h 0.35519 c 0.35519,0 0.74984,0.0789 1.22343,0.23679 1.30236,0.51305 2.32846,1.61808 3.0783,3.3151 l 5.13051,11.01086 c 0.43412,0.82877 4.77532,10.06368 13.02359,27.6258 0.67091,1.34182 1.0261,2.60472 1.0261,3.78868 0,1.93381 -0.74984,3.70975 -2.289,5.2489 -1.46022,1.34182 -3.0783,2.01274 -4.81478,2.01274 h -0.35519 c -1.65755,0 -3.23617,-0.63145 -4.77532,-1.93381 -0.67091,-0.67091 -1.10503,-1.26289 -1.34182,-1.69701 -0.19733,-0.35519 -0.94717,-1.93381 -2.289,-4.77532 l -16.14136,-34.37439 2.84152,-5.95928 8.68239,18.50929 c 7.1827,15.27312 10.81353,23.00835 10.93191,23.20567 0.43413,1.26289 1.18397,1.89434 2.21006,1.89434 h 0.0789 c 0.23679,0 0.51305,-0.0789 0.78931,-0.19733 0.86824,-0.43412 1.30236,-1.10503 1.30236,-1.93381 v -0.0789 c 0,-0.19733 -0.0395,-0.39465 -0.0789,-0.59198 l -7.73523,-16.45708 c -0.47359,-1.06557 -4.89371,-10.45834 -13.22091,-28.17832 z"
           data-paper-data="{&quot;glyphName&quot;:&quot;M&quot;,&quot;glyphIndex&quot;:0,&quot;firstGlyphOfWord&quot;:true,&quot;word&quot;:1}"
           id="path2"
           style="fill:#000000;fill-opacity:1" />
        <path
           d="m 318.45144,194.48878 c -2.88098,0 -5.52516,1.06557 -7.89309,3.23617 -2.36793,2.40739 -3.55189,5.16997 -3.55189,8.20881 v 57.85632 c 0,3.03884 0.98665,5.64356 2.92044,7.89309 0.82877,0.86824 1.53915,1.46022 2.0522,1.77594 2.05221,1.22343 4.14387,1.85488 6.275,1.85488 h 0.15786 l 0.15787,0.0395 v -0.0395 c -0.59198,-0.19733 -0.98664,-0.35519 -1.18396,-0.47359 -0.74984,-0.27626 -1.65756,-0.9077 -2.76259,-1.89434 -0.74984,-0.82877 -1.30236,-1.49969 -1.57862,-2.01274 -0.55252,-1.06557 -0.86824,-1.73648 -0.90769,-2.01274 -0.55252,-1.34182 -0.82878,-3.39403 -0.82878,-6.11714 v -56.08038 c 0,-0.98664 0.0395,-1.69701 0.15787,-2.1706 0.23679,-1.10503 0.78931,-2.1706 1.65755,-3.23617 1.53915,-1.69701 3.35456,-2.52579 5.48569,-2.52579 1.10503,0 2.21006,0.27626 3.31509,0.78931 2.64418,1.49969 3.94655,3.78868 3.94655,6.82752 v 57.50113 c 0,1.34182 0.27625,2.68365 0.82877,4.06494 1.0261,2.48632 2.64418,4.38066 4.85425,5.76195 1.85487,1.06557 3.55189,1.61808 5.09104,1.61808 0.59198,0 0.86824,0 0.86824,-0.0395 1.06557,0.0395 1.93381,0.0395 2.56525,0.0395 h 21.98225 c 1.61808,0 2.80205,-0.1184 3.63082,-0.35519 1.69701,-0.39465 3.35456,-1.26289 4.93318,-2.56525 0.86824,-0.82877 1.42076,-1.42076 1.69701,-1.85488 1.46022,-2.09167 2.21006,-4.3412 2.21006,-6.70912 v -0.23679 c 0,-2.40739 -0.74984,-4.69639 -2.289,-6.82752 -0.39465,-0.55252 -1.06557,-1.22343 -2.01274,-2.0522 -2.24953,-1.73648 -4.57799,-2.60472 -7.02486,-2.60472 h -32.95362 c -0.0395,0 -0.0395,0 -0.0395,-0.0395 v -46.17455 c 0,-2.76258 -0.98664,-5.28837 -2.95991,-7.57736 -0.9077,-0.94717 -1.61808,-1.53915 -2.0522,-1.81541 -2.0522,-1.38129 -4.2228,-2.0522 -6.47233,-2.0522 z m 0.1184,9.31384 c -0.19733,0 -0.43412,0.0395 -0.71038,0.1184 -0.94717,0.43412 -1.42075,1.10503 -1.42075,1.93381 v 58.09311 c 0,3.11777 0.86824,5.72249 2.60472,7.81416 0.82877,0.86824 1.49968,1.46022 2.01274,1.73648 2.01274,1.22343 4.2228,1.81541 6.63019,1.81541 h 0.19733 l 0.1184,0.0395 v -0.0395 c -2.01274,-0.74984 -3.67029,-2.01274 -5.01211,-3.82815 -0.59198,-0.86824 -1.06557,-1.77594 -1.42076,-2.72311 -0.55252,-1.38129 -0.82877,-3.35456 -0.82877,-5.91981 v -57.06701 c 0,-0.19733 -0.0395,-0.39465 -0.1184,-0.63145 -0.43412,-0.9077 -1.10503,-1.34182 -1.97327,-1.34182 z m 44.28021,52.68635 c 1.93381,0 3.59135,0.63145 5.01211,1.93381 1.57862,1.53915 2.36793,3.3151 2.36793,5.32783 0,1.30236 -0.35519,2.60472 -1.10503,3.82815 -1.53915,2.289 -3.67029,3.43349 -6.31447,3.43349 h -25.25788 c -1.46022,0 -2.80205,-0.39465 -4.02547,-1.18396 -1.38128,-0.86824 -2.36793,-2.1706 -2.99937,-3.90708 h 32.24327 c 0.35518,0 0.71037,-0.0789 1.02609,-0.19733 0.82878,-0.47359 1.2629,-1.10503 1.2629,-1.89434 v -0.15786 c 0,-0.19733 -0.0395,-0.35519 -0.0789,-0.51305 -0.35519,-1.06557 -1.10503,-1.57862 -2.21006,-1.57862 h -32.55902 v -5.09104 z"
           data-paper-data="{&quot;glyphName&quot;:&quot;L&quot;,&quot;glyphIndex&quot;:1,&quot;lastGlyphOfWord&quot;:true,&quot;word&quot;:1}"
           id="path4"
           style="fill:#000000;fill-opacity:1" />
      </g>
      <rect
         style="fill:none;fill-opacity:0.658948;stroke:#000000;stroke-width:4;stroke-linecap:round;stroke-linejoin:round;stroke-dasharray:none;stroke-opacity:1"
         id="rect408"
         width="199.064"
         height="199.064"
         x="261.09247"
         y="-127.81625"
         transform="rotate(45)" />
    </g>
  </g>
</svg>
